<svg xmlns="http://www.w3.org/2000/svg" viewBox="0 0 14 14"><defs><style>.cls-1{fill:#777677;fill-rule:evenodd;}</style></defs><g id="Layer_2" data-name="Layer 2"><g id="Layer_1-2" data-name="Layer 1"><g id="Page-1"><g id="Desktop-HD-Copy-33"><g id="Bars-_-Search-Bar-_-x---Glyphs-_-On-Dark---Search-Glyph-Copy" data-name="Bars-/-Search-Bar-/-x---Glyphs-/-On-Dark---Search-Glyph-Copy"><path id="Search" class="cls-1" d="M13.74,12.57,9.91,8.74A5.38,5.38,0,0,0,11,5.51,5.53,5.53,0,0,0,5.46,0,5.43,5.43,0,0,0,0,5.47,5.54,5.54,0,0,0,5.5,11,5.41,5.41,0,0,0,8.74,9.91h0l3.83,3.83a.8.8,0,0,0,.8.23.8.8,0,0,0,.59-.59.82.82,0,0,0-.23-.81ZM5.5,9.88A4.43,4.43,0,0,1,1.1,5.47,4.34,4.34,0,0,1,5.46,1.1a4.42,4.42,0,0,1,4.4,4.4A4.35,4.35,0,0,1,5.5,9.88Z"/></g></g></g></g></g></svg>